<mxfile host="app.diagrams.net" modified="2024-02-06T15:18:47.195Z" agent="Mozilla/5.0 (Windows NT 10.0; Win64; x64) AppleWebKit/537.36 (KHTML, like Gecko) Chrome/121.0.0.0 Safari/537.36" etag="DJlPT2cpOShdF2aA4TQW" version="23.1.1" type="github">
  <diagram name="Page-1" id="ANv8_qnFMgbxWOOTVNy1">
    <mxGraphModel dx="794" dy="446" grid="1" gridSize="10" guides="1" tooltips="1" connect="1" arrows="1" fold="1" page="1" pageScale="1" pageWidth="850" pageHeight="1100" math="0" shadow="0">
      <root>
        <mxCell id="0" />
        <mxCell id="1" parent="0" />
        <mxCell id="4jZFA0rqiz-s_2tiAC6e-17" style="rounded=0;orthogonalLoop=1;jettySize=auto;html=1;exitX=0.5;exitY=1;exitDx=0;exitDy=0;entryX=0.5;entryY=0;entryDx=0;entryDy=0;" parent="1" source="4jZFA0rqiz-s_2tiAC6e-6" target="4jZFA0rqiz-s_2tiAC6e-8" edge="1">
          <mxGeometry relative="1" as="geometry" />
        </mxCell>
        <mxCell id="4jZFA0rqiz-s_2tiAC6e-6" value="&lt;font style=&quot;font-size: 29px;&quot;&gt;Rouge&lt;/font&gt;" style="ellipse;whiteSpace=wrap;html=1;aspect=fixed;" parent="1" vertex="1">
          <mxGeometry x="560" y="200" width="120" height="120" as="geometry" />
        </mxCell>
        <mxCell id="4jZFA0rqiz-s_2tiAC6e-19" style="rounded=0;orthogonalLoop=1;jettySize=auto;html=1;exitX=0.5;exitY=0;exitDx=0;exitDy=0;entryX=0.5;entryY=1;entryDx=0;entryDy=0;" parent="1" source="4jZFA0rqiz-s_2tiAC6e-7" target="Lmx89dHxOP3N97mU44dt-2" edge="1">
          <mxGeometry relative="1" as="geometry">
            <mxPoint x="320" y="330" as="targetPoint" />
          </mxGeometry>
        </mxCell>
        <mxCell id="4jZFA0rqiz-s_2tiAC6e-21" value="Delai_sig &amp;gt;= G_DELAI" style="edgeLabel;html=1;align=center;verticalAlign=middle;resizable=0;points=[];" parent="4jZFA0rqiz-s_2tiAC6e-19" vertex="1" connectable="0">
          <mxGeometry x="-0.5715" y="-1" relative="1" as="geometry">
            <mxPoint x="13" y="-33" as="offset" />
          </mxGeometry>
        </mxCell>
        <mxCell id="4jZFA0rqiz-s_2tiAC6e-7" value="&lt;font style=&quot;font-size: 29px;&quot;&gt;Jaune&lt;br&gt;&lt;/font&gt;" style="ellipse;whiteSpace=wrap;html=1;aspect=fixed;" parent="1" vertex="1">
          <mxGeometry x="260" y="430" width="120" height="120" as="geometry" />
        </mxCell>
        <mxCell id="4jZFA0rqiz-s_2tiAC6e-18" style="edgeStyle=orthogonalEdgeStyle;rounded=0;orthogonalLoop=1;jettySize=auto;html=1;exitX=0;exitY=0.5;exitDx=0;exitDy=0;" parent="1" source="4jZFA0rqiz-s_2tiAC6e-8" target="4jZFA0rqiz-s_2tiAC6e-7" edge="1">
          <mxGeometry relative="1" as="geometry" />
        </mxCell>
        <mxCell id="4jZFA0rqiz-s_2tiAC6e-20" value="Delai_sig &amp;gt;= G_DELAI_JAUNE" style="edgeLabel;html=1;align=center;verticalAlign=middle;resizable=0;points=[];" parent="4jZFA0rqiz-s_2tiAC6e-18" vertex="1" connectable="0">
          <mxGeometry x="-0.1611" y="-4" relative="1" as="geometry">
            <mxPoint x="-15" y="4" as="offset" />
          </mxGeometry>
        </mxCell>
        <mxCell id="4jZFA0rqiz-s_2tiAC6e-8" value="&lt;span style=&quot;font-size: 29px;&quot;&gt;Vert&lt;/span&gt;" style="ellipse;whiteSpace=wrap;html=1;aspect=fixed;" parent="1" vertex="1">
          <mxGeometry x="560" y="430" width="120" height="120" as="geometry" />
        </mxCell>
        <mxCell id="4jZFA0rqiz-s_2tiAC6e-13" value="" style="endArrow=classic;html=1;rounded=0;entryX=1;entryY=0;entryDx=0;entryDy=0;" parent="1" edge="1" target="4jZFA0rqiz-s_2tiAC6e-6">
          <mxGeometry width="50" height="50" relative="1" as="geometry">
            <mxPoint x="720" y="160" as="sourcePoint" />
            <mxPoint x="659.1201017596948" y="188.20006359980925" as="targetPoint" />
          </mxGeometry>
        </mxCell>
        <mxCell id="4jZFA0rqiz-s_2tiAC6e-14" value="&lt;font style=&quot;font-size: 21px;&quot;&gt;RST&lt;/font&gt;" style="edgeLabel;html=1;align=center;verticalAlign=middle;resizable=0;points=[];" parent="4jZFA0rqiz-s_2tiAC6e-13" vertex="1" connectable="0">
          <mxGeometry x="0.374" y="-4" relative="1" as="geometry">
            <mxPoint x="22" y="-17" as="offset" />
          </mxGeometry>
        </mxCell>
        <mxCell id="Lmx89dHxOP3N97mU44dt-4" style="edgeStyle=orthogonalEdgeStyle;rounded=0;orthogonalLoop=1;jettySize=auto;html=1;exitX=1;exitY=0.5;exitDx=0;exitDy=0;" edge="1" parent="1" source="Lmx89dHxOP3N97mU44dt-2" target="4jZFA0rqiz-s_2tiAC6e-6">
          <mxGeometry relative="1" as="geometry" />
        </mxCell>
        <mxCell id="Lmx89dHxOP3N97mU44dt-2" value="&lt;font style=&quot;font-size: 29px;&quot;&gt;Done&lt;/font&gt;" style="ellipse;whiteSpace=wrap;html=1;aspect=fixed;" vertex="1" parent="1">
          <mxGeometry x="260" y="200" width="120" height="120" as="geometry" />
        </mxCell>
      </root>
    </mxGraphModel>
  </diagram>
</mxfile>
